<svg xmlns="http://www.w3.org/2000/svg"
     viewBox="46.545455 139.40454523791823 930.90909 745.0880227061385"
     preserveAspectRatio="xMidYMid meet">
  <path d="M889.018182 418.909091H884.363636V316.509091a93.090909 93.090909 0 0 0-99.607272-89.832727h-302.545455l-93.090909-76.334546A46.545455 46.545455 0 0 0 358.865455 139.636364H146.152727A93.090909 93.090909 0 0 0 46.545455 229.469091V837.818182a46.545455 46.545455 0 0 0 46.545454 46.545454 46.545455 46.545455 0 0 0 16.756364-3.258181 109.381818 109.381818 0 0 0 25.134545 3.258181h586.472727a85.178182 85.178182 0 0 0 87.04-63.301818l163.374546-302.545454a46.545455 46.545455 0 0 0 5.585454-21.876364A82.385455 82.385455 0 0 0 889.018182 418.909091z m-744.727273-186.181818h198.283636l93.09091 76.334545a46.545455 46.545455 0 0 0 29.323636 10.705455h319.301818a12.101818 12.101818 0 0 1 6.516364 0V418.909091H302.545455a85.178182 85.178182 0 0 0-87.04 63.301818L139.636364 622.778182V232.727273a19.549091 19.549091 0 0 1 6.516363 0z m578.094546 552.029091a27.461818 27.461818 0 0 0-2.792728 6.516363H154.530909l147.083636-272.290909a27.461818 27.461818 0 0 0 2.792728-6.981818h565.061818z" />
</svg>
